<?xml version="1.0" encoding="UTF-8" standalone="no"?> <svg width="512" height="512" viewBox="0 0 512 512" fill="none" xmlns="http://www.w3.org/2000/svg">
<path d="M416 192H472C478.365 192 484.47 189.471 488.971 184.971C493.471 180.47 496 174.365 496 168C496 161.635 493.471 155.53 488.971 151.029C484.47 146.529 478.365 144 472 144H471.576C467.474 139.983 462.237 137.323 456.573 136.38C450.91 135.438 445.093 136.257 439.911 138.729C436.361 134.739 431.868 131.7 426.842 129.891C421.817 128.082 416.419 127.56 411.139 128.372C405.86 129.184 400.868 131.304 396.619 134.54C392.369 137.775 388.997 142.023 386.81 146.896C384.623 151.769 383.69 157.112 384.097 162.437C384.504 167.763 386.237 172.902 389.139 177.386C392.041 181.87 396.019 185.557 400.711 188.109C405.403 190.662 410.659 191.999 416 192V192ZM400.1 158.144C400.515 154.586 402.112 151.27 404.636 148.727C407.159 146.184 410.462 144.56 414.017 144.117C414.655 144.041 415.297 144.003 415.94 144.003C419.005 143.995 422.008 144.867 424.592 146.513C427.177 148.16 429.235 150.514 430.523 153.295C431.065 154.467 431.884 155.491 432.908 156.278C433.932 157.066 435.131 157.593 436.404 157.816C437.676 158.039 438.984 157.95 440.214 157.558C441.445 157.165 442.563 156.48 443.471 155.562C444.681 154.335 446.142 153.384 447.754 152.774C449.367 152.164 451.091 151.91 452.811 152.028C454.53 152.147 456.204 152.636 457.717 153.461C459.23 154.287 460.547 155.429 461.577 156.811C462.323 157.802 463.289 158.606 464.399 159.159C465.509 159.713 466.733 160.001 467.973 160H472C474.122 160 476.157 160.843 477.657 162.343C479.157 163.843 480 165.878 480 168C480 170.122 479.157 172.157 477.657 173.657C476.157 175.157 474.122 176 472 176H416C413.742 176 411.509 175.522 409.449 174.598C407.389 173.674 405.547 172.324 404.045 170.638C402.544 168.952 401.416 166.966 400.736 164.813C400.056 162.66 399.839 160.387 400.1 158.144V158.144ZM296 144H352C358.365 144 364.47 141.471 368.971 136.971C373.471 132.47 376 126.365 376 120C376 113.635 373.471 107.53 368.971 103.029C364.47 98.5286 358.365 96 352 96H351.576C347.474 91.983 342.237 89.3231 336.573 88.3804C330.91 87.4376 325.093 88.2575 319.911 90.729C316.361 86.7386 311.868 83.7005 306.842 81.8914C301.817 80.0823 296.419 79.56 291.139 80.3719C285.86 81.1839 280.868 83.3043 276.619 86.5399C272.369 89.7755 268.997 94.0233 266.81 98.8961C264.623 103.769 263.69 109.112 264.097 114.437C264.504 119.763 266.237 124.902 269.139 129.386C272.041 133.87 276.019 137.557 280.711 140.109C285.403 142.662 290.659 143.999 296 144V144ZM280.1 110.144C280.516 106.585 282.113 103.269 284.637 100.726C287.161 98.1826 290.465 96.5598 294.02 96.117C294.658 96.0404 295.3 96.0013 295.943 96C299.008 95.9923 302.011 96.8635 304.595 98.5104C307.18 100.157 309.238 102.511 310.526 105.292C311.068 106.464 311.887 107.488 312.911 108.275C313.935 109.063 315.134 109.59 316.407 109.813C317.679 110.036 318.987 109.947 320.217 109.555C321.448 109.162 322.566 108.477 323.474 107.559C324.684 106.332 326.145 105.381 327.758 104.771C329.37 104.161 331.094 103.907 332.814 104.025C334.533 104.144 336.207 104.633 337.72 105.458C339.233 106.284 340.55 107.426 341.58 108.808C342.325 109.799 343.291 110.603 344.4 111.157C345.51 111.711 346.733 112 347.973 112H352C354.122 112 356.157 112.843 357.657 114.343C359.157 115.843 360 117.878 360 120C360 122.122 359.157 124.157 357.657 125.657C356.157 127.157 354.122 128 352 128H296C293.742 128 291.509 127.522 289.449 126.598C287.389 125.674 285.547 124.324 284.045 122.638C282.544 120.952 281.416 118.966 280.736 116.813C280.056 114.66 279.839 112.387 280.1 110.144V110.144ZM260.672 384C260.672 381.878 259.829 379.843 258.329 378.343C256.829 376.843 254.794 376 252.672 376H223.078C221.689 370.022 218.768 364.508 214.603 360H342.941C348.791 360 354.537 358.448 359.591 355.501C364.645 352.555 368.827 348.32 371.709 343.229C374.592 338.138 376.071 332.373 375.997 326.524C375.923 320.674 374.298 314.948 371.288 309.932L362.088 294.595C379.594 299.262 396.361 306.357 411.9 315.672L483.881 358.86C485.7 359.952 487.879 360.276 489.937 359.761C491.996 359.247 493.765 357.935 494.857 356.116C495.949 354.297 496.273 352.118 495.758 350.06C495.244 348.001 493.932 346.232 492.113 345.14L420.133 301.951C399.923 289.828 377.818 281.19 354.743 276.397L367.152 251.578C367.762 250.359 368.05 249.004 367.989 247.641C367.928 246.279 367.519 244.956 366.803 243.796C366.086 242.636 365.085 241.678 363.895 241.014C362.704 240.35 361.363 240.001 360 240H312V229.416L346.971 215.428C348.456 214.834 349.728 213.809 350.625 212.485C351.521 211.161 352 209.599 352 208C352 206.401 351.521 204.839 350.625 203.515C349.728 202.191 348.456 201.166 346.971 200.572L306.971 184.572C305.757 184.086 304.443 183.906 303.143 184.046C301.843 184.186 300.597 184.642 299.515 185.375C298.432 186.108 297.546 187.095 296.933 188.25C296.32 189.405 296 190.693 296 192V240H264C262.636 240 261.295 240.349 260.104 241.013C258.913 241.677 257.912 242.634 257.195 243.794C256.478 244.954 256.07 246.278 256.008 247.641C255.947 249.003 256.235 250.358 256.845 251.578L268.333 274.554L260.425 275.02C207.206 278.038 157.129 301.189 120.354 339.775C119.101 339.599 117.84 339.489 116.575 339.446C109.827 327.434 98.7215 318.473 85.5542 314.416C72.3869 310.359 58.1642 311.516 45.8256 317.647C33.4871 323.779 23.9759 334.417 19.2578 347.362C14.5398 360.307 14.9755 374.57 20.475 387.203C21.0976 388.628 22.122 389.841 23.4229 390.693C24.7239 391.545 26.2449 391.999 27.8 392H252.672C253.723 392 254.763 391.793 255.733 391.391C256.704 390.989 257.586 390.4 258.329 389.657C259.072 388.914 259.661 388.032 260.063 387.061C260.465 386.091 260.672 385.051 260.672 384ZM312 203.816L322.459 208L312 212.184V203.816ZM325.569 318.164C326.848 320.296 327.645 322.681 327.906 325.153C328.167 327.625 327.884 330.124 327.078 332.476C326.273 334.828 324.963 336.975 323.241 338.767C321.518 340.56 319.425 341.955 317.108 342.854L316.988 342.901L314.288 344.001H245.188C256.834 338.097 267.649 330.682 277.354 321.948L310.138 292.442L325.569 318.164ZM357.569 318.164C359.122 320.753 359.961 323.707 359.999 326.726C360.037 329.744 359.273 332.719 357.786 335.346C356.299 337.973 354.141 340.158 351.533 341.679C348.925 343.199 345.96 344 342.941 344H339.19C342.319 338.873 343.983 332.986 344 326.98C344.018 320.974 342.389 315.077 339.29 309.932L326.466 288.558C331.26 288.916 336.029 289.454 340.772 290.171L357.569 318.164ZM347.056 256L339.056 272H284.944L276.944 256H347.056ZM261.364 290.992L289.679 289.327L266.647 310.055C242.376 331.924 210.858 344.019 178.188 344H171.7C162.693 339.57 152.453 338.313 142.642 340.434C175.439 310.928 217.318 293.487 261.364 290.992V290.992ZM32 365.714C32.0012 357.029 34.9994 348.611 40.4882 341.881C45.9771 335.15 53.6203 330.52 62.1274 328.772C70.6344 327.024 79.484 328.266 87.182 332.286C94.8799 336.307 100.954 342.861 104.38 350.842C105.071 352.446 106.267 353.781 107.787 354.642C109.307 355.503 111.067 355.844 112.798 355.612C113.67 355.492 114.549 355.431 115.429 355.429C119.751 355.417 123.951 356.861 127.351 359.529C128.658 360.548 130.249 361.135 131.904 361.211C133.56 361.287 135.198 360.846 136.592 359.951C142.144 356.39 148.758 354.862 155.309 355.626C161.861 356.391 167.945 359.401 172.528 364.145C173.637 365.29 175.062 366.079 176.622 366.408C178.182 366.738 179.805 366.594 181.282 365.995C185.934 364.112 191.133 364.101 195.792 365.967C200.451 367.832 204.208 371.427 206.275 376H33.415C32.4709 372.653 31.9947 369.192 32 365.714V365.714ZM296 376C298.122 376 300.157 376.843 301.657 378.343C303.157 379.843 304 381.878 304 384C304 386.122 303.157 388.157 301.657 389.657C300.157 391.157 298.122 392 296 392H288C285.878 392 283.843 391.157 282.343 389.657C280.843 388.157 280 386.122 280 384C280 381.878 280.843 379.843 282.343 378.343C283.843 376.843 285.878 376 288 376H296ZM208 416C208 418.122 207.157 420.157 205.657 421.657C204.157 423.157 202.122 424 200 424H112C109.878 424 107.843 423.157 106.343 421.657C104.843 420.157 104 418.122 104 416C104 413.878 104.843 411.843 106.343 410.343C107.843 408.843 109.878 408 112 408H200C202.122 408 204.157 408.843 205.657 410.343C207.157 411.843 208 413.878 208 416ZM320 416C320 418.122 319.157 420.157 317.657 421.657C316.157 423.157 314.122 424 312 424H232C229.878 424 227.843 423.157 226.343 421.657C224.843 420.157 224 418.122 224 416C224 413.878 224.843 411.843 226.343 410.343C227.843 408.843 229.878 408 232 408H312C314.122 408 316.157 408.843 317.657 410.343C319.157 411.843 320 413.878 320 416ZM488 408H487.7C488.285 404.025 488.007 399.971 486.882 396.114C485.758 392.257 483.815 388.688 481.185 385.65C478.556 382.613 475.302 380.178 471.646 378.513C467.99 376.847 464.018 375.99 460 376C459.329 376 458.659 376.024 457.99 376.073C454.352 370.599 449.285 366.225 443.337 363.427C437.39 360.629 430.79 359.513 424.253 360.2C419.389 356.489 413.738 353.943 407.736 352.759C401.733 351.575 395.539 351.784 389.63 353.37C383.721 354.956 378.255 357.877 373.652 361.908C369.049 365.939 365.433 370.972 363.081 376.62C362.105 376.211 361.058 376 360 376H328C325.878 376 323.843 376.843 322.343 378.343C320.843 379.843 320 381.878 320 384C320 386.122 320.843 388.157 322.343 389.657C323.843 391.157 325.878 392 328 392H360C360.003 397.507 361.145 402.955 363.354 408H344C341.878 408 339.843 408.843 338.343 410.343C336.843 411.843 336 413.878 336 416C336 418.122 336.843 420.157 338.343 421.657C339.843 423.157 341.878 424 344 424H488C490.122 424 492.157 423.157 493.657 421.657C495.157 420.157 496 418.122 496 416C496 413.878 495.157 411.843 493.657 410.343C492.157 408.843 490.122 408 488 408ZM382.113 408C377.99 403.392 375.805 397.37 376.014 391.191C376.222 385.011 378.808 379.15 383.233 374.831C387.657 370.512 393.578 368.067 399.761 368.006C405.944 367.946 411.911 370.275 416.419 374.507C417.369 375.4 418.523 376.047 419.781 376.391C421.039 376.736 422.361 376.767 423.634 376.483C425.067 376.164 426.531 376.002 428 376C431.921 375.997 435.755 377.148 439.027 379.308C442.299 381.468 444.863 384.543 446.4 388.15C447.187 389.991 448.635 391.47 450.459 392.295C452.284 393.121 454.351 393.232 456.253 392.607C458.383 391.909 460.666 391.821 462.843 392.353C465.021 392.885 467.006 394.016 468.574 395.618C470.141 397.22 471.23 399.228 471.715 401.417C472.2 403.605 472.064 405.885 471.32 408H382.113ZM166.113 192C175.795 191.969 185.098 195.761 192 202.552C198.902 195.761 208.206 191.969 217.889 192H224C226.122 192 228.157 192.843 229.657 194.343C231.157 195.843 232 197.878 232 200C232 202.122 231.157 204.157 229.657 205.657C228.157 207.157 226.122 208 224 208H217.889C213.996 207.987 210.178 209.065 206.867 211.111C203.556 213.158 200.884 216.091 199.155 219.578C198.49 220.907 197.469 222.024 196.205 222.805C194.942 223.586 193.485 223.999 192 223.999C190.514 223.999 189.058 223.586 187.795 222.805C186.531 222.024 185.509 220.907 184.845 219.578C183.116 216.091 180.444 213.158 177.133 211.111C173.822 209.065 170.003 207.987 166.111 208H160C157.878 208 155.843 207.157 154.343 205.657C152.843 204.157 152 202.122 152 200C152 197.878 152.843 195.843 154.343 194.343C155.843 192.843 157.878 192 160 192H166.113ZM56 224C56 221.878 56.8428 219.843 58.3431 218.343C59.8434 216.843 61.8782 216 64 216H70.111C79.7939 215.969 89.0977 219.761 96 226.552C102.902 219.761 112.206 215.969 121.889 216H128C130.122 216 132.157 216.843 133.657 218.343C135.157 219.843 136 221.878 136 224C136 226.122 135.157 228.157 133.657 229.657C132.157 231.157 130.122 232 128 232H121.889C117.996 231.987 114.178 233.065 110.867 235.111C107.556 237.158 104.884 240.091 103.155 243.578C102.49 244.907 101.469 246.024 100.205 246.805C98.9417 247.586 97.4855 247.999 96 247.999C94.5144 247.999 93.0582 247.586 91.7945 246.805C90.5308 246.024 89.5095 244.907 88.845 243.578C87.1157 240.091 84.4441 237.158 81.1329 235.111C77.8217 233.065 74.0034 231.987 70.111 232H64C61.8782 232 59.8434 231.157 58.3431 229.657C56.8428 228.157 56 226.122 56 224ZM88 160C88 157.878 88.8428 155.843 90.3431 154.343C91.8434 152.843 93.8782 152 96 152H102.111C111.794 151.969 121.098 155.761 128 162.552C134.902 155.761 144.206 151.969 153.889 152H160C162.122 152 164.157 152.843 165.657 154.343C167.157 155.843 168 157.878 168 160C168 162.122 167.157 164.157 165.657 165.657C164.157 167.157 162.122 168 160 168H153.889C149.996 167.987 146.178 169.065 142.867 171.111C139.556 173.158 136.884 176.091 135.155 179.578C134.49 180.907 133.469 182.024 132.205 182.805C130.942 183.586 129.485 183.999 128 183.999C126.514 183.999 125.058 183.586 123.795 182.805C122.531 182.024 121.509 180.907 120.845 179.578C119.116 176.091 116.444 173.158 113.133 171.111C109.822 169.065 106.003 167.987 102.111 168H96C93.8782 168 91.8434 167.157 90.3431 165.657C88.8428 164.157 88 162.122 88 160ZM88 416C88 418.122 87.1571 420.157 85.6568 421.657C84.1565 423.157 82.1217 424 80 424H40C37.8782 424 35.8434 423.157 34.3431 421.657C32.8428 420.157 32 418.122 32 416C32 413.878 32.8428 411.843 34.3431 410.343C35.8434 408.843 37.8782 408 40 408H80C82.1217 408 84.1565 408.843 85.6568 410.343C87.1571 411.843 88 413.878 88 416Z" fill="url(#paint0_linear_5_13079)"/>
<defs>
<linearGradient id="paint0_linear_5_13079" x1="96.343" y1="483.657" x2="458.963" y2="121.037" gradientUnits="userSpaceOnUse">
<stop stop-color="#41DFD0"/>
<stop offset="1" stop-color="#EE83EF"/>
</linearGradient>
</defs>
</svg>
